<?xml version="1.0" encoding="UTF-8" standalone="no"?>
<svg
   id="export"
   class="canvas"
   preserveAspectRatio="xMidYMid"
   width="401"
   height="112.82813"
   version="1.1"
   sodipodi:docname="transformer_dataset1.h5.svg"
   inkscape:version="1.3 (1:1.3+202307231459+0e150ed6c4)"
   xmlns:inkscape="http://www.inkscape.org/namespaces/inkscape"
   xmlns:sodipodi="http://sodipodi.sourceforge.net/DTD/sodipodi-0.dtd"
   xmlns="http://www.w3.org/2000/svg"
   xmlns:svg="http://www.w3.org/2000/svg">
  <defs
     id="defs38" />
  <sodipodi:namedview
     id="namedview38"
     pagecolor="#ffffff"
     bordercolor="#000000"
     borderopacity="0.25"
     inkscape:showpageshadow="2"
     inkscape:pageopacity="0.0"
     inkscape:pagecheckerboard="0"
     inkscape:deskcolor="#d1d1d1"
     inkscape:zoom="1.4859287"
     inkscape:cx="201.55745"
     inkscape:cy="36.340909"
     inkscape:window-width="1920"
     inkscape:window-height="995"
     inkscape:window-x="0"
     inkscape:window-y="0"
     inkscape:window-maximized="1"
     inkscape:current-layer="export" />
  <g
     id="origin"
     transform="rotate(-90,15.914065,96.414065)">
    <g
       id="edge-paths"
       class="edge-paths">
      <defs
         id="defs3">
        <marker
           id="arrowhead"
           viewBox="0 0 10 10"
           refX="9"
           refY="5"
           markerUnits="strokeWidth"
           markerWidth="8"
           markerHeight="6"
           orient="auto"
           style="fill:#000000">
          <path
             d="M 0,0 10,5 0,10 4,5 Z"
             style="stroke-width:1"
             id="path1" />
        </marker>
        <marker
           id="arrowhead-select"
           viewBox="0 0 10 10"
           refX="9"
           refY="5"
           markerUnits="strokeWidth"
           markerWidth="8"
           markerHeight="6"
           orient="auto"
           style="fill:#ee0000">
          <path
             d="M 0,0 10,5 0,10 4,5 Z"
             style="stroke-width:1"
             id="path2" />
        </marker>
        <marker
           id="arrowhead-hover"
           viewBox="0 0 10 10"
           refX="9"
           refY="5"
           markerUnits="strokeWidth"
           markerWidth="8"
           markerHeight="6"
           orient="auto">
          <path
             d="M 0,0 10,5 0,10 4,5 Z"
             style="stroke-width:1"
             id="path3" />
        </marker>
      </defs>
      <path
         id="edge-input_2"
         class="edge-path"
         d="m 55.914062,101 v 1.66667 c 0,1.66666 0,5 0,8.33333 0,3.33333 0,6.66667 0,8.33333 V 121"
         style="fill:none;stroke:#000000;stroke-width:1px;marker-end:url(#arrowhead)" />
      <path
         class="edge-path-hit-test"
         d="m 55.914062,101 v 1.66667 c 0,1.66666 0,5 0,8.33333 0,3.33333 0,6.66667 0,8.33333 V 121"
         style="fill:none;stroke:#000000;stroke-width:0.5em;stroke-opacity:0.00100002"
         id="path5" />
      <path
         id="edge-layer_normalization_4"
         class="edge-path"
         d="m 55.914062,141 v 1.66667 c 0,1.66666 0,5 0,8.33333 0,3.33333 0,6.66667 0,8.33333 V 161"
         style="fill:none;stroke:#000000;stroke-width:1px;marker-end:url(#arrowhead)" />
      <path
         class="edge-path-hit-test"
         d="m 55.914062,141 v 1.66667 c 0,1.66666 0,5 0,8.33333 0,3.33333 0,6.66667 0,8.33333 V 161"
         style="fill:none;stroke:#000000;stroke-width:0.5em;stroke-opacity:0.00100002"
         id="path6" />
      <path
         id="edge-layer_normalization_5"
         class="edge-path"
         d="m 55.914062,181 v 1.66667 c 0,1.66666 0,5 0,8.33333 0,3.33333 0,6.66667 0,8.33333 V 201"
         style="fill:none;stroke:#000000;stroke-width:1px;marker-end:url(#arrowhead)" />
      <path
         class="edge-path-hit-test"
         d="m 55.914062,181 v 1.66667 c 0,1.66666 0,5 0,8.33333 0,3.33333 0,6.66667 0,8.33333 V 201"
         style="fill:none;stroke:#000000;stroke-width:0.5em;stroke-opacity:0.00100002"
         id="path7" />
      <path
         id="edge-flatten_1"
         class="edge-path"
         d="m 55.914062,221 v 1.66667 c 0,1.66666 0,5 0,8.33333 0,3.33333 0,6.66667 0,8.33333 V 241"
         style="fill:none;stroke:#000000;stroke-width:1px;marker-end:url(#arrowhead)" />
      <path
         class="edge-path-hit-test"
         d="m 55.914062,221 v 1.66667 c 0,1.66666 0,5 0,8.33333 0,3.33333 0,6.66667 0,8.33333 V 241"
         style="fill:none;stroke:#000000;stroke-width:0.5em;stroke-opacity:0.00100002"
         id="path8" />
      <path
         id="edge-dense_3"
         class="edge-path"
         d="m 55.914062,281 v 1.66667 c 0,1.66666 0,5 0,8.33333 0,3.33333 0,6.66667 0,8.33333 V 301"
         style="fill:none;stroke:#000000;stroke-width:1px;marker-end:url(#arrowhead)" />
      <path
         class="edge-path-hit-test"
         d="m 55.914062,281 v 1.66667 c 0,1.66666 0,5 0,8.33333 0,3.33333 0,6.66667 0,8.33333 V 301"
         style="fill:none;stroke:#000000;stroke-width:0.5em;stroke-opacity:0.00100002"
         id="path9" />
      <path
         id="edge-dropout_2"
         class="edge-path"
         d="m 55.914062,321 v 1.66667 c 0,1.66666 0,5 0,8.33333 0,3.33333 0,6.66667 0,8.33333 V 341"
         style="fill:none;stroke:#000000;stroke-width:1px;marker-end:url(#arrowhead)" />
      <path
         class="edge-path-hit-test"
         d="m 55.914062,321 v 1.66667 c 0,1.66666 0,5 0,8.33333 0,3.33333 0,6.66667 0,8.33333 V 341"
         style="fill:none;stroke:#000000;stroke-width:0.5em;stroke-opacity:0.00100002"
         id="path10" />
      <path
         id="edge-dense_4"
         class="edge-path"
         d="m 55.914062,381 v 1.66667 c 0,1.66666 0,5 0,8.33333 0,3.33333 0,6.66667 0,8.33333 V 401"
         style="fill:none;stroke:#000000;stroke-width:1px;marker-end:url(#arrowhead)" />
      <path
         class="edge-path-hit-test"
         d="m 55.914062,381 v 1.66667 c 0,1.66666 0,5 0,8.33333 0,3.33333 0,6.66667 0,8.33333 V 401"
         style="fill:none;stroke:#000000;stroke-width:0.5em;stroke-opacity:0.00100002"
         id="path11" />
      <path
         id="edge-dropout_3"
         class="edge-path"
         d="m 55.914062,421 v 1.66667 c 0,1.66666 0,5 0,8.33333 0,3.33333 0,6.66667 0,8.33333 V 441"
         style="fill:none;stroke:#000000;stroke-width:1px;marker-end:url(#arrowhead)" />
      <path
         class="edge-path-hit-test"
         d="m 55.914062,421 v 1.66667 c 0,1.66666 0,5 0,8.33333 0,3.33333 0,6.66667 0,8.33333 V 441"
         style="fill:none;stroke:#000000;stroke-width:0.5em;stroke-opacity:0.00100002"
         id="path12" />
    </g>
    <g
       id="nodes"
       class="nodes">
      <g
         id="node-name-input_2"
         class="node graph-node"
         style="opacity:1"
         transform="translate(21.719238,81)">
        <g
           class="node-item node-item-type node-item-type-data"
           id="g16">
          <path
             d="m 5,0 h 58.389648 a 5,5 0 0 1 5,5 v 10 a 5,5 0 0 1 -5,5 H 5 A 5,5 0 0 1 0,15 V 5 A 5,5 0 0 1 5,0 Z"
             style="fill:#555555;stroke:#000000;stroke-width:0"
             id="path16" />
          <text
             x="6"
             y="13"
             style="font-size:11px;font-family:'-apple-system', BlinkMacSystemFont, 'Segoe WPC', 'Segoe UI', Ubuntu, 'Droid Sans', sans-serif, 'PingFang SC';fill:#ffffff"
             id="text16">InputLayer</text>
          <title
             id="title16">input_2</title>
        </g>
        <path
           class="node border"
           d="m 5,0 h 58.389648 a 5,5 0 0 1 5,5 v 10 a 5,5 0 0 1 -5,5 H 5 A 5,5 0 0 1 0,15 V 5 A 5,5 0 0 1 5,0 Z"
           style="fill:none;stroke:#333333;stroke-width:1px"
           id="path17" />
      </g>
      <g
         id="node-name-layer_normalization_4"
         class="node graph-node"
         style="opacity:1"
         transform="translate(0,121)">
        <g
           class="node-item node-item-type"
           id="g18">
          <path
             d="m 5,0 h 101.82813 a 5,5 0 0 1 5,5 v 10 a 5,5 0 0 1 -5,5 H 5 A 5,5 0 0 1 0,15 V 5 A 5,5 0 0 1 5,0 Z"
             style="fill:#000000;stroke:#000000;stroke-width:0"
             id="path18" />
          <text
             x="6"
             y="13"
             style="font-style:normal;font-variant:normal;font-weight:normal;font-stretch:normal;font-size:11px;font-family:'-apple-system', BlinkMacSystemFont, 'Segoe WPC', 'Segoe UI', Ubuntu, 'Droid Sans', sans-serif, 'PingFang SC';-inkscape-font-specification:'-apple-system, BlinkMacSystemFont, Segoe WPC, Segoe UI, Ubuntu, Droid Sans, sans-serif, PingFang SC, Normal';font-variant-ligatures:normal;font-variant-caps:normal;font-variant-numeric:normal;font-variant-east-asian:normal;fill:#ffffff"
             id="text18"><tspan
               sodipodi:role="line"
               id="tspan39"
               x="6"
               y="13">TransformerEncoder</tspan></text>
          <title
             id="title18">layer_normalization_4</title>
        </g>
        <path
           class="node border"
           d="m 5,0 h 101.82813 a 5,5 0 0 1 5,5 v 10 a 5,5 0 0 1 -5,5 H 5 A 5,5 0 0 1 0,15 V 5 A 5,5 0 0 1 5,0 Z"
           style="fill:none;stroke:#333333;stroke-width:1px"
           id="path19" />
      </g>
      <g
         id="node-name-layer_normalization_5"
         class="node graph-node"
         style="opacity:1"
         transform="translate(0,161)">
        <g
           class="node-item node-item-type"
           id="g20">
          <path
             d="m 5,0 h 101.82813 a 5,5 0 0 1 5,5 v 10 a 5,5 0 0 1 -5,5 H 5 A 5,5 0 0 1 0,15 V 5 A 5,5 0 0 1 5,0 Z"
             style="fill:#000000;stroke:#000000;stroke-width:0"
             id="path20" />
          <text
             x="6"
             y="13"
             style="font-style:normal;font-variant:normal;font-weight:normal;font-stretch:normal;font-size:11px;font-family:'-apple-system', BlinkMacSystemFont, 'Segoe WPC', 'Segoe UI', Ubuntu, 'Droid Sans', sans-serif, 'PingFang SC';-inkscape-font-specification:'-apple-system, BlinkMacSystemFont, Segoe WPC, Segoe UI, Ubuntu, Droid Sans, sans-serif, PingFang SC, Normal';font-variant-ligatures:normal;font-variant-caps:normal;font-variant-numeric:normal;font-variant-east-asian:normal;fill:#ffffff"
             id="text20"><tspan
               sodipodi:role="line"
               id="tspan38"
               x="6"
               y="13">TransformerEncoder</tspan></text>
          <title
             id="title20">layer_normalization_5</title>
        </g>
        <path
           class="node border"
           d="m 5,0 h 101.82813 a 5,5 0 0 1 5,5 v 10 a 5,5 0 0 1 -5,5 H 5 A 5,5 0 0 1 0,15 V 5 A 5,5 0 0 1 5,0 Z"
           style="fill:none;stroke:#333333;stroke-width:1px"
           id="path21" />
      </g>
      <g
         id="node-name-flatten_1"
         class="node graph-node"
         style="opacity:1"
         transform="translate(30.984375,201)">
        <g
           class="node-item node-item-type node-item-type-shape"
           id="g22">
          <path
             d="m 5,0 h 39.859375 a 5,5 0 0 1 5,5 v 10 a 5,5 0 0 1 -5,5 H 5 A 5,5 0 0 1 0,15 V 5 A 5,5 0 0 1 5,0 Z"
             style="fill:#6c4f47;stroke:#000000;stroke-width:0"
             id="path22" />
          <text
             x="6"
             y="13"
             style="font-size:11px;font-family:'-apple-system', BlinkMacSystemFont, 'Segoe WPC', 'Segoe UI', Ubuntu, 'Droid Sans', sans-serif, 'PingFang SC';fill:#ffffff"
             id="text22">Flatten</text>
          <title
             id="title22">flatten_1</title>
        </g>
        <path
           class="node border"
           d="m 5,0 h 39.859375 a 5,5 0 0 1 5,5 v 10 a 5,5 0 0 1 -5,5 H 5 A 5,5 0 0 1 0,15 V 5 A 5,5 0 0 1 5,0 Z"
           style="fill:none;stroke:#333333;stroke-width:1px"
           id="path23" />
      </g>
      <g
         id="node-name-dense_3"
         class="node graph-node"
         style="opacity:1"
         transform="translate(33.226562,241)">
        <g
           class="node-item node-item-type node-item-type-layer"
           id="g24">
          <path
             d="m 5,0 h 35.375 a 5,5 0 0 1 5,5 V 20 H 0 V 5 A 5,5 0 0 1 5,0 Z"
             style="fill:#335588;stroke:#000000;stroke-width:0"
             id="path24" />
          <text
             x="6"
             y="13"
             style="font-size:11px;font-family:'-apple-system', BlinkMacSystemFont, 'Segoe WPC', 'Segoe UI', Ubuntu, 'Droid Sans', sans-serif, 'PingFang SC';fill:#ffffff"
             id="text24">Dense</text>
          <title
             id="title24">dense_3</title>
        </g>
        <g
           class="node-item node-item-type node-item-type-activation"
           transform="translate(0,20)"
           id="g25">
          <path
             d="m 0,0 h 45.375 v 15 a 5,5 0 0 1 -5,5 H 5 A 5,5 0 0 1 0,15 Z"
             style="fill:#702921;stroke:#000000;stroke-width:0"
             id="path25" />
          <text
             x="6"
             y="13"
             style="font-size:11px;font-family:'-apple-system', BlinkMacSystemFont, 'Segoe WPC', 'Segoe UI', Ubuntu, 'Droid Sans', sans-serif, 'PingFang SC';fill:#ffffff"
             id="text25">ReLU</text>
        </g>
        <line
           class="node"
           x1="0"
           x2="45.375"
           y1="20"
           y2="20"
           style="fill:none;stroke:#333333;stroke-width:1px"
           id="line25" />
        <path
           class="node border"
           d="m 5,0 h 35.375 a 5,5 0 0 1 5,5 v 30 a 5,5 0 0 1 -5,5 H 5 A 5,5 0 0 1 0,35 V 5 A 5,5 0 0 1 5,0 Z"
           style="fill:none;stroke:#333333;stroke-width:1px"
           id="path26" />
      </g>
      <g
         id="node-name-dropout_2"
         class="node graph-node"
         style="opacity:1"
         transform="translate(27.483208,301)">
        <g
           class="node-item node-item-type node-item-type-dropout"
           id="g27">
          <path
             d="m 5,0 h 46.86171 a 5,5 0 0 1 5,5 v 10 a 5,5 0 0 1 -5,5 H 5 A 5,5 0 0 1 0,15 V 5 A 5,5 0 0 1 5,0 Z"
             style="fill:#454770;stroke:#000000;stroke-width:0"
             id="path27" />
          <text
             x="6"
             y="13"
             style="font-size:11px;font-family:'-apple-system', BlinkMacSystemFont, 'Segoe WPC', 'Segoe UI', Ubuntu, 'Droid Sans', sans-serif, 'PingFang SC';fill:#ffffff"
             id="text27">Dropout</text>
          <title
             id="title27">dropout_2</title>
        </g>
        <path
           class="node border"
           d="m 5,0 h 46.86171 a 5,5 0 0 1 5,5 v 10 a 5,5 0 0 1 -5,5 H 5 A 5,5 0 0 1 0,15 V 5 A 5,5 0 0 1 5,0 Z"
           style="fill:none;stroke:#333333;stroke-width:1px"
           id="path28" />
      </g>
      <g
         id="node-name-dense_4"
         class="node graph-node"
         style="opacity:1"
         transform="translate(33.226562,341)">
        <g
           class="node-item node-item-type node-item-type-layer"
           id="g29">
          <path
             d="m 5,0 h 35.375 a 5,5 0 0 1 5,5 V 20 H 0 V 5 A 5,5 0 0 1 5,0 Z"
             style="fill:#335588;stroke:#000000;stroke-width:0"
             id="path29" />
          <text
             x="6"
             y="13"
             style="font-size:11px;font-family:'-apple-system', BlinkMacSystemFont, 'Segoe WPC', 'Segoe UI', Ubuntu, 'Droid Sans', sans-serif, 'PingFang SC';fill:#ffffff"
             id="text29">Dense</text>
          <title
             id="title29">dense_4</title>
        </g>
        <g
           class="node-item node-item-type node-item-type-activation"
           transform="translate(0,20)"
           id="g30">
          <path
             d="m 0,0 h 45.375 v 15 a 5,5 0 0 1 -5,5 H 5 A 5,5 0 0 1 0,15 Z"
             style="fill:#702921;stroke:#000000;stroke-width:0"
             id="path30" />
          <text
             x="6"
             y="13"
             style="font-size:11px;font-family:'-apple-system', BlinkMacSystemFont, 'Segoe WPC', 'Segoe UI', Ubuntu, 'Droid Sans', sans-serif, 'PingFang SC';fill:#ffffff"
             id="text30">ReLU</text>
        </g>
        <line
           class="node"
           x1="0"
           x2="45.375"
           y1="20"
           y2="20"
           style="fill:none;stroke:#333333;stroke-width:1px"
           id="line30" />
        <path
           class="node border"
           d="m 5,0 h 35.375 a 5,5 0 0 1 5,5 v 30 a 5,5 0 0 1 -5,5 H 5 A 5,5 0 0 1 0,35 V 5 A 5,5 0 0 1 5,0 Z"
           style="fill:none;stroke:#333333;stroke-width:1px"
           id="path31" />
      </g>
      <g
         id="node-name-dropout_3"
         class="node graph-node"
         style="opacity:1"
         transform="translate(27.483208,401)">
        <g
           class="node-item node-item-type node-item-type-dropout"
           id="g32">
          <path
             d="m 5,0 h 46.86171 a 5,5 0 0 1 5,5 v 10 a 5,5 0 0 1 -5,5 H 5 A 5,5 0 0 1 0,15 V 5 A 5,5 0 0 1 5,0 Z"
             style="fill:#454770;stroke:#000000;stroke-width:0"
             id="path32" />
          <text
             x="6"
             y="13"
             style="font-size:11px;font-family:'-apple-system', BlinkMacSystemFont, 'Segoe WPC', 'Segoe UI', Ubuntu, 'Droid Sans', sans-serif, 'PingFang SC';fill:#ffffff"
             id="text32">Dropout</text>
          <title
             id="title32">dropout_3</title>
        </g>
        <path
           class="node border"
           d="m 5,0 h 46.86171 a 5,5 0 0 1 5,5 v 10 a 5,5 0 0 1 -5,5 H 5 A 5,5 0 0 1 0,15 V 5 A 5,5 0 0 1 5,0 Z"
           style="fill:none;stroke:#333333;stroke-width:1px"
           id="path33" />
      </g>
      <g
         id="node-name-dense_5"
         class="node graph-node"
         style="opacity:1"
         transform="translate(27.802696,441)">
        <g
           class="node-item node-item-type node-item-type-layer"
           id="g34">
          <path
             d="m 5,0 h 46.222733 a 5,5 0 0 1 5,5 V 20 H 0 V 5 A 5,5 0 0 1 5,0 Z"
             style="fill:#335588;stroke:#000000;stroke-width:0"
             id="path34" />
          <text
             x="6"
             y="13"
             style="font-size:11px;font-family:'-apple-system', BlinkMacSystemFont, 'Segoe WPC', 'Segoe UI', Ubuntu, 'Droid Sans', sans-serif, 'PingFang SC';fill:#ffffff"
             id="text34">Dense</text>
          <title
             id="title34">dense_5</title>
        </g>
        <g
           class="node-item node-item-type node-item-type-activation"
           transform="translate(0,20)"
           id="g35">
          <path
             d="m 0,0 h 56.222733 v 15 a 5,5 0 0 1 -5,5 H 5 A 5,5 0 0 1 0,15 Z"
             style="fill:#702921;stroke:#000000;stroke-width:0"
             id="path35" />
          <text
             x="6"
             y="13"
             style="font-size:11px;font-family:'-apple-system', BlinkMacSystemFont, 'Segoe WPC', 'Segoe UI', Ubuntu, 'Droid Sans', sans-serif, 'PingFang SC';fill:#ffffff"
             id="text35">Softmax</text>
        </g>
        <line
           class="node"
           x1="0"
           x2="56.222733"
           y1="20"
           y2="20"
           style="fill:none;stroke:#333333;stroke-width:1px"
           id="line35" />
        <path
           class="node border"
           d="m 5,0 h 46.222733 a 5,5 0 0 1 5,5 v 30 a 5,5 0 0 1 -5,5 H 5 A 5,5 0 0 1 0,35 V 5 A 5,5 0 0 1 5,0 Z"
           style="fill:none;stroke:#333333;stroke-width:1px"
           id="path36" />
      </g>
    </g>
  </g>
</svg>
